#!OML:ASF F:\VICON\USERDATA\INSTALL\rory3\rory3.ASF
:FULLY-SPECIFIED
:DEGREES
61
root 0.1273745393075696 18.062583225131092 30.544449410110907 -2.208129497976048 1.2512655994143822 -4.937015847304487
lfemur -8.4762394274073 -0.9898828652878262 -15.090930999712842
ltibia 61.41494363588433
lfoot 6.798231637624858 -4.554821760999256
ltoes 1.7952855634554825
rfemur -12.680327497819844 4.6720608426147345 31.68386289329835
rtibia 24.350941104604985
rfoot -10.923969922283476 -3.1577443739410325
rtoes 8.646053142103348
lowerback 10.258318764181748 -0.510332498104156 3.4448071641948044
upperback 0.3635760819939804 -0.07759365270845597 3.2325396137901503
thorax -5.191594204341884 -0.10388258224307245 1.755604763497025
lowerneck -15.97732327442421 -2.6778064370970642 -3.9108267534735317
upperneck 22.2787952333183 -3.1936304837587093 1.034543976956666
head 9.660641983382037 -1.5878227254786295 0.7027413319930023
lclavicle -2.7944350940982462e-15 -4.1418969331593154e-16
lhumerus -29.59151981833684 -1.666847898024986 84.37997573585149
lradius 28.282232464411944
lwrist 4.664202678456184
lhand -26.959063339228464 23.435159613551797
lfingers 7.1250199999999975
lthumb -0.3977590704498152 53.13499916555261
rclavicle -2.796683275763013e-15 -4.156644042248614e-16
rhumerus -28.094711841204738 -20.031648522641166 -77.28101246501963
rradius 21.415061431660995
rwrist 9.599481258125653
rhand -17.16156279687933 22.497901382639863
rfingers 7.1250199999999975
rthumb 9.128655438397804 -6.9872192480825355
62
root 0.09801044312192997 18.091274965904073 31.111494481166147 -2.32342093022746 0.7209465984271652 -5.288926525392538
lfemur -13.851896546172027 0.01199089289574351 -14.665407642019026
ltibia 64.32459849272774
lfoot 3.6552043111118744 -1.5548234680681083
ltoes 1.149389865907255
rfemur -9.69713519546375 4.837174891793134 32.16809662866436
rtibia 23.687359028928427
rfoot -13.193447878386841 -3.33463475567459
rtoes 7.4058699466537945
lowerback 10.197329972390603 -0.06360708577638263 4.1987686925363725
upperback 0.4855328114800534 0.6204841935282991 3.021298529452304
thorax -5.153923405155474 0.23931298056757794 1.023917143512462
lowerneck -15.879084036467095 -2.7115165830412815 -3.8250859358114964
upperneck 22.416014452336192 -3.2615311981632864 1.0477721454789006
head 9.704273373436864 -1.6212423535770453 0.6929519461361151
lclavicle -2.792935590168832e-15 -4.131915508771829e-16
lhumerus -30.6948976882495 -1.0768373388557715 84.49100480896098
lradius 27.302164670225807
lwrist 4.69614349994631
lhand -26.872561475479966 23.387136169219392
lfingers 7.1250199999999975
lthumb -0.32637742816208576 53.02329998924952
rclavicle -2.7963062124328795e-15 -4.1541288852811147e-16
rhumerus -27.055561343269893 -17.84244258950508 -78.62328854090475
rradius 22.669109832748095
rwrist 8.131485758815142
rhand -17.032145005261803 22.281897601896073
rfingers 7.1250199999999975
rthumb 9.251961656165983 -7.316463276937545
63
root 0.09915135879816939 18.08506505886337 31.929537917502017 -2.0900805909930065 -0.20465795519182062 -5.82988291709087
lfemur -18.78053929276085 0.5472256526255879 -13.988070772540361
ltibia 63.48540737808682
lfoot 0.33076972782938086 0.511316744365578
ltoes -1.5276112380822213
rfemur -7.096538450675262 5.38901365249533 32.58305035316855
rtibia 23.14434938796449
rfoot -15.053876322269094 -3.3951705611255476
rtoes 6.602958082886941
lowerback 10.082191725732761 0.5566638852448718 5.10134088802117
upperback 0.4404767689613073 1.5728739693141938 2.816189187324121
thorax -5.1983802559808865 0.7006146783037107 0.12716881744791964
lowerneck -15.85550338102029 -2.752023844855414 -3.7108044927217847
upperneck 22.514092572200237 -3.3246101605248324 1.0708128383423148
head 9.740557065950478 -1.643207701832258 0.6763434616107972
lclavicle -2.7948386560897562e-15 -4.1445781089691925e-16
lhumerus -31.9263053535707 -0.4076267888276446 84.47403559172635
lradius 26.53141010446181
lwrist 5.536505394056097
lhand -27.05185044910765 23.072000222326796
lfingers 7.1250199999999975
lthumb -0.38898009932442956 53.004481619078305
rclavicle -2.7961038846906623e-15 -4.1527798485591908e-16
rhumerus -26.288615266954334 -15.685657857616585 -79.78942068309952
rradius 24.24708779759198
rwrist 5.899694975176124
rhand -17.041357923820396 21.755694678925316
rfingers 7.1250199999999975
rthumb 9.209719765859713 -7.943531925848758
64
root 0.10835985747065596 18.019292583002706 32.868082929382474 -1.7667650746113193 -1.0922958534478169 -6.462349339233221
lfemur -22.9100871462733 0.26118637415930834 -13.128501696070451
ltibia 58.7568017524028
lfoot -2.235486261231439 2.3760848901114233
ltoes -3.525156105915665
rfemur -4.7132674498977 5.927594837340964 33.256281378269854
rtibia 23.00863550534483
rfoot -16.58226727415971 -3.3256691851661415
rtoes 5.931211227889992
lowerback 10.073066835940436 1.1156014099373919 6.157066325655729
upperback 0.4171557391689375 2.4812864827532577 2.6624063973429024
thorax -5.275647302955235 1.114417312027538 -0.7731997379524446
lowerneck -15.878152130273614 -2.798022607289719 -3.584723996124888
upperneck 22.453172654160834 -3.394172541719276 1.1002015772518798
head 9.729951638342897 -1.667675399596164 0.6589831683238502
lclavicle -2.796410271311104e-15 -4.1550257129023967e-16
lhumerus -32.97816764171221 0.17758947877104436 84.48217241483022
lradius 25.94601429532874
lwrist 6.414616973947857
lhand -27.45020642818276 22.376370571288312
lfingers 7.1250199999999975
lthumb -0.7206582186038022 52.44642151618255
rclavicle -2.7967967093507783e-15 -4.1574005146258723e-16
rhumerus -25.630167314005043 -13.677118783360505 -80.73794948412849
rradius 25.85230311431942
rwrist 4.123435587877706
rhand -17.11019510246955 21.64236924451126
rfingers 7.1250199999999975
rthumb 8.977214172980286 -8.077577442539761
